<svg width="32" height="32" viewBox="0 0 32 32" xmlns="http://www.w3.org/2000/svg"><path d="M16 0C7.164 0 0 7.163 0 16s7.163 16 16 16a16 16 0 0 0 9.404-3.061q.048-.033.094-.07c.156-.136.202-.44.052-.586l-.106-.103q-.446-.43-.893-.858a.57.57 0 0 0-.364-.165c-.165-.002-.36.1-.435.151A13.7 13.7 0 0 1 16 29.713c-7.574 0-13.713-6.14-13.713-13.713C2.287 8.426 8.427 2.287 16 2.287c2.752.002 5.436.832 7.705 2.376.14.095.675.043.805-.082l.947-.91c.102-.1.02-.517-.126-.622A16 16 0 0 0 16 0m11.106 5.147-.918.897c-.13.127-.118.662.012.807A13.7 13.7 0 0 1 29.713 16a13.7 13.7 0 0 1-1.392 5.99c.766-5.373-2.721-13.152-10.13-14.563-.23-.044-.77-.013-1.047.224-.273.234-.516.5-.774.75-.125.121-.131.619-.015.75a10.34 10.34 0 0 1 2.599 6.843 10.34 10.34 0 0 1-2.53 6.774c-.121.138-.16.614-.053.718l.82.794c.123.12.633.081.76-.063 1.957-2.224 3.265-5.289 3.266-8.223a12.1 12.1 0 0 0-1.485-5.741l.016.015c3.659 1.383 7.04 5.75 6.175 14.68a1.5 1.5 0 0 0 .022.453c.037.163.118.31.21.4.327.322.65.649.991.957.185.169.636.062.769-.086A16 16 0 0 0 32 16a16 16 0 0 0-4.212-10.762c-.122-.133-.58-.191-.682-.09z" clip-rule="evenodd" fill="#0096dc" fill-rule="evenodd" image-rendering="optimizeQuality" shape-rendering="geometricPrecision" text-rendering="geometricPrecision" style="stroke-width:4.2974"/></svg>